<svg width="50" height="50" viewBox="0 0 50 50" fill="none" xmlns="http://www.w3.org/2000/svg">
<path d="M21.6068 21.2633V36.0605M17.4646 35.9565H25.6966M18.3516 13.9414L15.5 21.2633H27.7136L24.862 13.9414H18.3516Z" stroke="#404040" stroke-width="1.5" stroke-miterlimit="10" stroke-linejoin="round"/>
<path d="M33.7658 29.5437C35.0736 29.5357 35.894 29.5276 37.2018 29.5196C37.2018 32.4367 37.6649 34.4734 36.0933 35.9567H31.3716C29.8667 34.6036 30.0561 32.4367 30.0561 29.5753C31.7801 29.5647 32.0419 29.5542 33.7658 29.5437ZM33.7658 29.5437C33.7658 29.5437 32.6281 24.9417 37.502 21.2617C37.502 24.8971 38.1905 28.4078 36.5001 29.5316M33.7015 27.4441C33.2241 26.3636 31.5612 25.4301 29.75 24.9417C29.75 27.2796 29.654 28.9869 31.0001 29.5585" stroke="#404040" stroke-width="1.5" stroke-miterlimit="10" stroke-linecap="round" stroke-linejoin="round"/>
</svg>
