<?xml version="1.0" encoding="UTF-8" standalone="no"?>
<svg
   width="27.608208"
   height="32.985336"
   viewBox="0 0 27.607926 32.985"
   fill="none"
   version="1.1"
   id="svg1"
   sodipodi:docname="cart.svg"
   inkscape:version="1.3.2 (091e20ef0f, 2023-11-25)"
   xmlns:inkscape="http://www.inkscape.org/namespaces/inkscape"
   xmlns:sodipodi="http://sodipodi.sourceforge.net/DTD/sodipodi-0.dtd"
   xmlns="http://www.w3.org/2000/svg"
   xmlns:svg="http://www.w3.org/2000/svg">
  <sodipodi:namedview
     id="namedview1"
     pagecolor="#ffffff"
     bordercolor="#000000"
     borderopacity="0.25"
     inkscape:showpageshadow="2"
     inkscape:pageopacity="0.0"
     inkscape:pagecheckerboard="0"
     inkscape:deskcolor="#d1d1d1"
     inkscape:zoom="26.938487"
     inkscape:cx="12.509982"
     inkscape:cy="19.952865"
     inkscape:window-width="1488"
     inkscape:window-height="1237"
     inkscape:window-x="566"
     inkscape:window-y="43"
     inkscape:window-maximized="0"
     inkscape:current-layer="svg1" />
  <g
     clip-path="url(#clip0_329_52)"
     id="g1"
     transform="matrix(1.1070835,0,0,1.1979033,-1.229878,0.01037068)">
    <path
       d="m 8.1895535,9.4171037 10.2863045,0.06574 c 0,0 0.567598,-8.65642604 -4.965824,-8.65642604 -5.5333017,0 -5.3204805,8.65642604 -5.3204805,8.65642604 z m -3.9017196,0 c 0,0 -3.9017223,15.5816483 -1.6316281,16.6204253 0.5675228,0.865691 5.6752283,0.623211 10.9957282,0.623211 4.965824,-0.0034 10.28635,0.228546 10.995754,-0.588558 C 26.598595,24.444757 22.874179,9.4516647 22.874179,9.4516647 16.844248,9.3894087 10.459617,9.4170977 4.4297146,9.4170977 Z"
       stroke="#333333"
       stroke-width="1.67015"
       stroke-linecap="round"
       stroke-linejoin="round"
       id="path1" />
  </g>
  <defs
     id="defs1">
    <clipPath
       id="clip0_329_52">
      <rect
         width="26.77"
         height="30.209999"
         fill="#ffffff"
         id="rect1"
         x="0"
         y="0" />
    </clipPath>
  </defs>
</svg>
